HIERARCHY
ROOT Hips
{
  OFFSET 43.0842 91.1655 101.099
  CHANNELS 6 Xposition Yposition Zposition Zrotation Xrotation Yrotation
  JOINT LeftUpLeg
  {
    OFFSET 8.64259 1.95398 -2.38835
    CHANNELS 3 Zrotation Xrotation Yrotation
    JOINT LeftLeg
    {
      OFFSET 43.7702 0 0
      CHANNELS 3 Zrotation Xrotation Yrotation
      JOINT LeftFoot
      {
        OFFSET 40.6238 0 0
        CHANNELS 3 Zrotation Xrotation Yrotation
        JOINT LeftToeBase
        {
          OFFSET 12.7242 0 0
          CHANNELS 3 Zrotation Xrotation Yrotation
          End Site
          {
            OFFSET 0 0 0
          }
        }
      }
    }
  }
  JOINT RightUpLeg
  {
    OFFSET -8.2249 1.95398 -2.59336
    CHANNELS 3 Zrotation Xrotation Yrotation
    JOINT RightLeg
    {
      OFFSET 43.5653 0 0
      CHANNELS 3 Zrotation Xrotation Yrotation
      JOINT RightFoot
      {
        OFFSET 40.6238 0 0
        CHANNELS 3 Zrotation Xrotation Yrotation
        JOINT RightToeBase
        {
          OFFSET 12.7242 0 0
          CHANNELS 3 Zrotation Xrotation Yrotation
          End Site
          {
            OFFSET 0 0 0
          }
        }
      }
    }
  }
  JOINT Spine
  {
    OFFSET 0.165834 0.87714 6.61349
    CHANNELS 3 Zrotation Xrotation Yrotation
    JOINT Spine1
    {
      OFFSET 7.38963 1.71661e-005 0
      CHANNELS 3 Zrotation Xrotation Yrotation
      JOINT Spine2
      {
        OFFSET 11.9445 1.14441e-005 0
        CHANNELS 3 Zrotation Xrotation Yrotation
        JOINT Spine3
        {
          OFFSET 14.7254 4.19617e-005 0
          CHANNELS 3 Zrotation Xrotation Yrotation
          JOINT Spine4
          {
            OFFSET 10.9679 0 0
            CHANNELS 3 Zrotation Xrotation Yrotation
            JOINT RightShoulder
            {
              OFFSET 2.46616 -1.6653 3.69651
              CHANNELS 3 Zrotation Xrotation Yrotation
              JOINT RightArm
              {
                OFFSET 13.0012 0 0
                CHANNELS 3 Zrotation Xrotation Yrotation
                JOINT RightForeArm
                {
                  OFFSET 28.7848 1.52588e-005 0
                  CHANNELS 3 Zrotation Xrotation Yrotation
                  JOINT RightHand
                  {
                    OFFSET 26.5688 1.52588e-005 0
                    CHANNELS 3 Zrotation Xrotation Yrotation
                    End Site
                    {
                      OFFSET 0 0 0
                    }
                  }
                }
              }
            }
            JOINT LeftShoulder
            {
              OFFSET 2.38034 -1.29275 -3.7523
              CHANNELS 3 Zrotation Xrotation Yrotation
              JOINT LeftArm
              {
                OFFSET 16.3182 6.10351e-005 0
                CHANNELS 3 Zrotation Xrotation Yrotation
                JOINT LeftForeArm
                {
                  OFFSET 27.0901 0 0
                  CHANNELS 3 Zrotation Xrotation Yrotation
                  JOINT LeftHand
                  {
                    OFFSET 24.5451 1.52588e-005 0
                    CHANNELS 3 Zrotation Xrotation Yrotation
                    End Site
                    {
                      OFFSET 0 0 0
                    }
                  }
                }
              }
            }
            JOINT Neck
            {
              OFFSET 5.0226 -0.0266342 0
              CHANNELS 3 Zrotation Xrotation Yrotation
              JOINT Head
              {
                OFFSET 6.69364 2.86102e-005 0
                CHANNELS 3 Zrotation Xrotation Yrotation
                End Site
                {
                  OFFSET 0 0 0
                }
              }
            }
          }
        }
      }
    }
  }
}
MOTION
Frames:	17
Frame Time:	0.0333333
90.9932 89.2735 23.2996 96.8763 -24.4181 95.0365 -167.778 12.0528 101.738 -41.9539 24.8853 -2.58651 64.8023 6.06124 22.2751 36.7617 8.30597 3.65108 176.124 16.3548 82.6118 -28.732 -0.993074 -3.6609 65.621 -5.99408 7.03502 34.1722 -4.53333 5.28092 -0.472033 7.74686 -89.9285 11.3814 -0.905867 0.23348 -0.289321 -0.894717 0.27312 -22.827 -0.934151 -0.0495873 -2.81432 -0.934126 -0.0495866 91.6815 -53.0027 -97.6549 11.2568 52.3539 -37.6385 -17.1958 -9.27782 -89.641 -12.0267 -2.01404 3.03522 -95.8466 -49.1746 69.805 -6.02299 10.0828 -72.4723 7.73433 14.8131 -94.8455 14.658 1.78342 -2.31548 -25.6615 -18.3958 -10.7992 1.16121 -20.3694 -16.4839 
90.9853 89.2336 23.3415 96.7195 -24.3381 95.0189 -167.874 12.321 101.783 -42.1986 25.0458 -2.50384 64.7968 6.01668 22.2357 36.8789 8.39905 3.77517 176.097 16.5546 82.6465 -28.9475 -1.19675 -3.58964 65.7042 -6.06424 6.85435 34.346 -4.49339 4.83857 -0.473029 7.74591 -89.9442 11.3832 -0.91518 0.203143 -0.287417 -0.905367 0.243228 -22.8252 -0.933924 -0.0813245 -2.81253 -0.933895 -0.0813187 91.519 -53.0389 -97.8888 11.1438 52.2549 -37.6015 -17.322 -9.14371 -89.7512 -11.8737 -1.96862 3.05211 -95.9754 -49.2757 69.6457 -5.98934 9.82576 -72.2071 6.98145 14.8518 -94.5981 14.9975 1.81244 -2.10299 -25.6548 -18.4681 -10.7005 1.39036 -20.4615 -16.4587 
90.9697 89.1199 23.4251 96.542 -24.3332 94.9124 -167.946 12.6348 101.776 -42.5582 24.9983 -2.44203 64.8169 5.98146 22.1994 37.0867 8.72753 3.63782 176.194 17.0353 82.6823 -29.6265 -1.07895 -3.63306 65.8754 -6.18635 6.71365 34.6576 -4.58831 4.63159 -0.429818 7.73538 -89.9638 11.4039 -0.838227 0.156722 -0.266761 -0.83054 0.19347 -22.8041 -0.846579 -0.102462 -2.79142 -0.846576 -0.102462 91.545 -53.3457 -97.7915 12.7027 53.7303 -39.4221 -17.1565 -10.9494 -90.1679 -11.733 -1.92602 3.10613 -96.7123 -49.9286 68.7686 -5.36512 9.63672 -71.4619 6.67634 14.6312 -94.521 16.3259 1.90789 -0.629802 -25.8535 -18.6473 -10.2442 1.37866 -20.6526 -17.0557 
91.0098 88.9265 23.5618 96.3607 -24.1419 94.6653 -168.114 12.9155 101.689 -43.0002 25.3661 -2.35242 64.8678 5.92876 22.4252 37.2405 9.10906 3.21836 176.232 17.5546 82.625 -30.5106 -0.313166 -3.70061 66.4748 -6.72482 6.70665 35.5454 -5.14759 5.11794 -0.385002 7.70782 -89.9652 11.4589 -0.749942 0.145485 -0.211854 -0.742808 0.178346 -22.7488 -0.758993 -0.0866417 -2.7361 -0.759005 -0.0866477 91.7369 -53.6245 -97.456 14.5151 54.9253 -41.2156 -18.1676 -12.8913 -91.0339 -12.2419 -2.08206 2.75409 -97.2698 -50.4382 68.1184 -4.10638 10.2246 -70.7852 9.04815 13.9821 -94.5708 17.8776 2.12898 -1.10053 -26.2442 -18.7453 -9.80972 1.38096 -20.7901 -17.7228 
91.0015 88.6706 23.8211 96.1202 -23.3578 94.4384 -168.399 13.5065 101.746 -43.6826 25.558 -2.10529 65.0381 6.05327 22.3386 37.4719 9.69438 2.54208 176.182 18.0458 82.6026 -31.8271 0.337153 -3.75024 67.3988 -7.54639 6.74237 37.1593 -5.64448 3.97364 -0.393846 7.68515 -89.9628 11.5043 -0.766369 0.152435 -0.166443 -0.758905 0.186005 -22.7034 -0.776745 -0.0849501 -2.69076 -0.776757 -0.0849573 92.0298 -53.7485 -97.0013 11.4494 53.1929 -37.8766 -18.1948 -11.4343 -92.6043 -13.2776 -2.38334 2.79005 -97.3461 -50.5864 68.0562 -3.9219 10.5044 -69.9641 8.5877 13.8013 -94.2934 18.0314 2.14457 -0.899394 -26.2565 -18.6046 -9.65339 1.72521 -20.6682 -17.3797 
90.894 88.2791 24.2837 95.8125 -21.8132 94.0622 -168.844 14.5435 101.977 -44.8461 26.2316 -1.71475 65.2933 6.26009 21.5755 37.8514 10.2417 2.354 176.281 18.7128 82.6298 -34.1006 1.46204 -4.04565 69.0108 -8.90898 7.18188 39.6084 -6.00907 0.263855 -0.442666 7.66822 -89.9411 11.5385 -0.853012 0.204861 -0.132162 -0.843169 0.242198 -22.6696 -0.875141 -0.0609944 -2.65692 -0.875142 -0.060996 92.3554 -53.8371 -96.5066 10.9951 52.5493 -36.8925 -18.6511 -11.7667 -94.9974 -15.0681 -2.92257 4.68013 -97.6286 -50.936 67.7612 -3.74168 10.2319 -68.4468 5.8457 13.4865 -94.1498 16.9708 1.91909 1.00501 -26.2201 -18.5103 -9.41927 2.17732 -20.5895 -16.9762 
90.6694 88.004 25.0671 95.2886 -19.3152 93.3988 -169.766 15.7576 102.191 -45.7762 28.0172 -0.934132 65.1646 5.83883 20.3504 38.4276 10.8965 2.48416 176.69 19.2556 82.5273 -36.9765 2.38463 -4.7541 70.7181 -10.2412 9.2166 43.6133 -7.56791 -2.53605 -0.52393 7.64455 -89.9093 11.5863 -0.999815 0.284142 -0.0842881 -0.986334 0.327865 -22.6225 -1.03899 -0.0295164 -2.60988 -1.03897 -0.0295085 92.8558 -53.2611 -95.8652 13.0135 52.3217 -37.4186 -20.5677 -13.2984 -99.0815 -16.926 -3.50841 5.81203 -97.7434 -51.2482 67.6978 -2.96331 10.9118 -66.1678 6.59824 12.3673 -94.3507 16.5651 1.87196 0.700308 -25.5388 -18.7567 -8.88315 1.98602 -20.6935 -16.8714 
90.2916 87.9674 26.3695 94.4762 -15.5611 92.6652 -171.049 17.2487 102.615 -45.7871 29.495 0.0855421 64.7355 5.19005 18.2758 38.8695 11.6199 2.01776 177.404 19.2832 82.7875 -39.6752 3.39214 -5.72274 73.05 -11.645 12.1669 46.5506 -9.01685 -3.60043 -0.61265 7.61553 -89.8586 11.6453 -1.15239 0.401608 -0.0251716 -1.13358 0.451933 -22.5644 -1.21983 0.0366447 -2.55177 -1.21979 0.0366527 93.1412 -53.2413 -95.4462 11.1124 49.7683 -34.0274 -23.0158 -11.9787 -104.692 -17.6355 -3.75742 6.73246 -97.5473 -51.3708 68.0205 -3.21778 12.566 -61.8368 9.09578 11.1099 -95.1926 15.8075 1.7818 0.277271 -24.3961 -18.9867 -8.18261 1.32047 -20.6675 -16.8402 
89.8429 88.0687 28.3131 93.4898 -10.6932 91.8507 -172.626 19.1297 103.429 -44.8612 29.198 1.03686 64.4477 4.44311 14.5397 38.9222 11.9161 1.41037 178.284 18.2666 83.6625 -40.9391 2.62039 -6.42675 74.5774 -12.8101 11.3247 48.4421 -10.1324 -3.0175 -0.621017 7.60147 -89.8039 11.6737 -1.14315 0.510235 0.00314688 -1.11958 0.560054 -22.5359 -1.24364 0.143039 -2.52327 -1.24365 0.143034 93.3309 -54.0961 -95.0282 6.41682 43.9225 -27.8821 -24.3921 -8.72243 -110.117 -21.6095 -5.26858 9.20028 -97.7785 -51.9026 67.8608 -2.77935 15.0517 -56.0541 11.2504 8.35933 -96.4842 14.0835 1.45409 1.26626 -23.3934 -18.7199 -8.06156 1.41185 -20.2499 -15.5086 
89.3728 88.5099 30.8805 92.9565 -4.6109 93.2149 -174.471 20.8529 104.523 -42.9432 26.7177 2.03558 64.0554 2.94744 8.32285 38.3108 10.9719 1.91382 179.495 15.4653 85.336 -38.9929 0.151992 -6.84148 73.613 -12.998 5.87225 48.7718 -10.8421 0.864244 -0.550528 7.64177 -89.7366 11.5932 -0.971722 0.625477 -0.0776025 -0.943272 0.667638 -22.6153 -1.11477 0.304502 -2.60267 -1.11479 0.304488 93.0879 -54.1051 -95.3837 2.86284 34.8798 -19.7667 -24.6907 -5.85199 -113.408 -27.5374 -7.4922 10.4903 -97.61 -52.3022 68.2311 -2.67279 17.8519 -49.5292 13.0047 4.89548 -96.2674 12.8785 1.22692 1.81907 -22.2389 -17.7647 -7.97441 1.42229 -19.0976 -13.7513 
88.8815 89.1372 33.8941 92.7393 1.18527 89.7163 -175.878 23.0598 105.591 -40.7018 24.6355 2.34836 62.3728 -0.0418242 4.20904 35.982 6.02173 6.30456 -178.964 12.3873 88.2497 -35.6502 -0.519613 -7.16023 71.3214 -11.6969 -1.90274 48.5657 -11.3104 5.66599 -0.401012 7.72017 -89.6414 11.4349 -0.630403 0.777932 -0.236198 -0.595548 0.804915 -22.7714 -0.835063 0.55251 -2.75876 -0.835048 0.552508 92.6068 -52.986 -96.2835 2.44975 24.5095 -11.0019 -26.2281 -4.67011 -113.09 -31.162 -9.13958 12.1707 -96.7145 -51.8711 69.3768 -2.84604 19.7963 -44.278 14.0529 2.45099 -94.8366 12.8828 1.24381 1.61569 -22.296 -16.5012 -8.07193 1.9711 -17.8524 -12.9193 
88.4574 89.3326 36.7188 92.557 8.25512 92.7214 -175.09 26.4043 104.821 -41.2195 24.7327 0.379012 61.2093 -1.74284 7.81893 35.1958 1.60246 12.0517 -178.429 10.4548 90.2378 -34.7803 -1.85341 -6.98951 70.5942 -10.2307 -9.62121 46.8065 -10.5232 5.78211 -0.209779 7.81731 -89.4792 11.2402 -0.174982 1.05514 -0.431118 -0.128378 1.06182 -22.9635 -0.484023 0.953782 -2.95088 -0.483999 0.953787 92.6496 -51.4442 -96.4897 4.99058 11.7371 -2.04016 -26.1794 -4.86589 -107.695 -32.9756 -9.88193 12.4972 -95.9679 -51.2045 70.2505 -0.207564 19.7033 -44.0284 14.0668 1.26787 -93.8745 13.8026 1.4347 0.909503 -22.9102 -15.3202 -8.03827 2.98388 -16.8088 -12.6633 
87.9719 89.1463 38.8715 92.6893 16.4113 90.9209 -171.982 30.9551 100.71 -49.9474 27.1481 -2.06237 62.116 0.121582 12.7069 36.7738 3.12285 13.6071 -179.185 10.1554 91.4915 -36.5823 -3.21421 -6.13358 71.2919 -9.17567 -14.8366 43.1664 -8.31752 2.69415 -0.214024 7.90361 -89.3515 11.065 -0.125182 1.30193 -0.60656 -0.0677868 1.30617 -23.1371 -0.510677 1.20414 -3.12442 -0.51067 1.20414 92.499 -50.455 -96.8997 9.74601 -3.45242 7.16579 -23.1577 -7.25043 -97.7191 -34.217 -10.048 10.8236 -94.5819 -49.6858 71.8332 1.54116 15.7727 -49.7684 12.7365 3.93459 -94.8012 17.8108 2.06728 1.02177 -23.3402 -14.3411 -6.89072 2.66999 -15.8252 -13.9378 
87.6076 88.9167 40.6601 93.0315 24.6109 91.1125 -167.07 33.3884 94.0027 -63.9468 30.7186 -2.70925 62.8356 1.65786 13.2903 38.4007 6.30925 12.4179 -179.441 10.9483 93.32 -40.1934 -2.13741 -5.68004 71.2715 -7.22003 -16.1534 42.0444 -7.08074 -0.733446 -0.350272 7.98329 -89.3276 10.9077 -0.386382 1.37397 -0.763919 -0.325549 1.38963 -23.2949 -0.781433 1.19437 -3.28229 -0.781454 1.19436 92.0355 -49.8477 -97.7275 18.0643 -16.4647 17.2306 -18.0077 0.232181 -88.8639 -36.8208 -10.7877 9.74172 -93.3312 -47.9184 73.2005 1.48711 10.2703 -60.9679 9.62023 9.80053 -92.827 22.426 2.74223 0.616378 -24.8697 -13.4382 -6.6889 3.01983 -15.1268 -14.8525 
87.4596 89.2468 42.4036 92.2661 31.4924 91.7492 -162.715 31.4507 88.5416 -71.0196 32.5962 -3.49648 61.7757 -0.147453 10.7418 38.136 7.06169 10.1763 -179.077 13.7607 94.8069 -44.8218 -0.892137 -5.4364 68.9868 -3.83238 -13.7015 43.655 -7.42926 -3.59184 -0.543874 8.01571 -89.2216 10.8451 -0.723218 1.61611 -0.826622 -0.651423 1.64637 -23.3578 -1.17546 1.32411 -3.34513 -1.17549 1.3241 91.6763 -50.3042 -98.1894 29.1401 -22.3034 26.1474 -12.0358 -5.24441 -77.3966 -38.542 -11.304 9.21318 -91.9711 -45.1512 74.5324 0.199113 7.09282 -75.6807 6.22995 14.9637 -88.3971 26.1607 3.21238 -1.61182 -26.2537 -12.3481 -8.41328 4.14463 -14.443 -15.1671 
87.1037 90.2046 44.3804 90.43 37.8114 94.3223 -163.071 26.4522 88.4153 -64.5005 33.4305 -5.40713 58.7254 -4.97467 8.98562 37.552 7.23747 8.13657 -179.617 20.623 96.4187 -52.8255 -1.2889 -4.16145 64.0973 0.799987 -8.61764 40.7159 -4.0721 -10.0514 -0.991837 8.07026 -89.1996 10.7433 -1.60608 1.73734 -0.92795 -1.52808 1.80632 -23.4658 -2.05392 1.17432 -3.45315 -2.05393 1.17432 91.2249 -52.2933 -98.4734 35.4356 -22.206 32.3873 -5.36282 1.30296 -70.2587 -39.3212 -11.6611 9.51628 -89.9554 -40.6072 76.5767 5.51287 9.17257 -87.7976 4.82385 11.2399 -72.9928 27.6342 3.26235 -4.78925 -26.7396 -11.1415 -9.96293 5.01879 -13.6039 -16.1224 
86.1511 91.2773 46.7319 86.8153 42.3389 99.6793 -165.987 20.8908 90.9573 -48.7824 31.5482 -7.90757 61.7727 -0.128673 13.9081 36.6945 6.614 6.98127 179.048 32.421 98.673 -63.6253 -4.47219 -2.93486 55.8683 5.85765 1.28893 27.7693 4.54171 -10.5163 -1.58969 8.07356 -89.3898 10.7449 -2.88428 1.48072 -0.923836 -2.81631 1.60628 -23.4831 -3.19584 0.544702 -3.47045 -3.19582 0.544694 90.7664 -52.9769 -99.0176 35.0636 -18.6109 37.1674 3.55214 3.50357 -71.3691 -39.1359 -11.7418 10.1466 -89.142 -37.1765 77.0479 25.7016 10.2222 -98.9622 11.8037 -9.8883 -51.8211 24.5007 2.86002 -10.0855 -26.7481 -9.83537 -10.7254 6.79572 -12.597 -16.1428 
